# This file uses meters as units for non-parametric coordinates.

mtllib Spear.mtl
g default
v 0.101234 -0.096196 -0.255950
v 0.086625 -0.096196 -0.261527
v 0.072016 -0.096196 -0.255950
v 0.066439 -0.096196 -0.242484
v 0.072016 -0.096196 -0.229018
v 0.086625 -0.096196 -0.223440
v 0.101234 -0.096196 -0.229018
v 0.106812 -0.096196 -0.242484
v 0.129336 0.060402 -0.285194
v 0.086625 0.060402 -0.302885
v 0.043915 0.060402 -0.285194
v 0.026223 0.060402 -0.242484
v 0.043915 0.060402 -0.199773
v 0.086625 0.060402 -0.182082
v 0.129336 0.060402 -0.199773
v 0.147027 0.060402 -0.242484
v 0.086625 -0.096196 -0.242484
v 0.115512 -0.003966 -0.269110
v 0.126541 -0.003966 -0.242484
v 0.115512 -0.003966 -0.215857
v 0.086625 -0.003966 -0.204828
v 0.057739 -0.003966 -0.215857
v 0.046710 -0.003966 -0.242484
v 0.057739 -0.003966 -0.269110
v 0.086625 -0.003966 -0.280139
v 0.100149 0.075963 -0.256008
v 0.086625 0.075963 -0.261609
v 0.073101 0.075963 -0.256008
v 0.067499 0.075963 -0.242484
v 0.073101 0.075963 -0.228960
v 0.086625 0.075963 -0.223358
v 0.100149 0.075963 -0.228960
v 0.105751 0.075963 -0.242484
v 0.137497 0.066841 -0.293356
v 0.086625 0.066841 -0.314427
v 0.086625 0.075963 -0.314427
v 0.137497 0.075963 -0.293356
v 0.035753 0.066841 -0.293356
v 0.035753 0.075963 -0.293356
v 0.014681 0.066841 -0.242484
v 0.014681 0.075963 -0.242484
v 0.035753 0.066841 -0.191612
v 0.035753 0.075963 -0.191612
v 0.086625 0.066841 -0.170540
v 0.086625 0.075963 -0.170540
v 0.137497 0.066841 -0.191612
v 0.137497 0.075963 -0.191612
v 0.158569 0.066841 -0.242484
v 0.158569 0.075963 -0.242484
v 0.100149 0.100422 -0.256008
v 0.086625 0.100422 -0.261609
v 0.073101 0.100422 -0.256008
v 0.067499 0.100422 -0.242484
v 0.073101 0.100422 -0.228960
v 0.086625 0.100422 -0.223358
v 0.100149 0.100422 -0.228960
v 0.105751 0.100422 -0.242484
v 0.103513 0.114489 -0.259371
v 0.086625 0.114489 -0.266366
v 0.069738 0.114489 -0.259371
v 0.062743 0.114489 -0.242484
v 0.069738 0.114489 -0.225596
v 0.086625 0.114489 -0.218601
v 0.103513 0.114489 -0.225596
v 0.110508 0.114489 -0.242484
v 0.142651 0.133250 -0.298510
v 0.086625 0.133250 -0.321717
v 0.030599 0.133250 -0.298510
v 0.007392 0.133250 -0.242484
v 0.030599 0.133250 -0.186457
v 0.086625 0.133250 -0.163250
v 0.142651 0.133250 -0.186457
v 0.165858 0.133250 -0.242484
v 0.154781 0.128090 -0.310640
v 0.086625 0.128090 -0.338871
v 0.018469 0.128090 -0.310640
v -0.009762 0.128090 -0.242484
v 0.018469 0.128090 -0.174327
v 0.086625 0.128090 -0.146096
v 0.154781 0.128090 -0.174327
v 0.183013 0.128090 -0.242484
v 0.093630 1.132346 -0.249488
v 0.086625 1.132346 -0.252390
v 0.086625 1.132346 -0.242484
v 0.079621 1.132346 -0.249488
v 0.076719 1.132346 -0.242484
v 0.079621 1.132346 -0.235479
v 0.086625 1.132346 -0.232577
v 0.093630 1.132346 -0.235479
v 0.096531 1.132346 -0.242484
v 0.132534 0.299865 -0.288392
v 0.151550 0.299865 -0.242484
v 0.132534 0.299865 -0.196575
v 0.086625 0.299865 -0.177559
v 0.040717 0.299865 -0.196575
v 0.021701 0.299865 -0.242484
v 0.040717 0.299865 -0.288392
v 0.086625 0.299865 -0.307408
vt 0.192364 0.277386
vt 0.201233 0.286084
vt 0.171234 0.167298
vt 0.196703 0.169028
vt 0.213634 0.286649
vt 0.146003 0.170386
vt 0.221944 0.278598
vt 0.123843 0.178089
vt 0.222090 0.267001
vt 0.104313 0.189749
vt 0.213418 0.258346
vt 0.260054 0.202118
vt 0.200941 0.257764
vt 0.240668 0.186300
vt 0.192582 0.265805
vt 0.219660 0.175472
vt 0.207279 0.272205
vt 0.695339 0.968166
vt 0.702468 0.968513
vt 0.718453 0.979518
vt 0.709579 0.969227
vt 0.716659 0.970304
vt 0.723699 0.971737
vt 0.673973 0.969345
vt 0.681078 0.968584
vt 0.688205 0.968190
vt 0.205280 0.114794
vt 0.240674 0.125086
vt 0.273289 0.142491
vt 0.301197 0.166899
vt 0.320815 0.197946
vt 0.097580 0.131306
vt 0.131944 0.117612
vt 0.168463 0.112068
vt 0.207290 0.104916
vt 0.168207 0.101987
vt 0.167847 0.094742
vt 0.405501 0.101459
vt 0.129305 0.107839
vt 0.127247 0.100879
vt 0.092343 0.122568
vt 0.088577 0.116439
vt 0.330997 0.196379
vt 0.337301 0.192860
vt 0.309140 0.160669
vt 0.314786 0.156064
vt 0.279462 0.134504
vt 0.283775 0.128675
vt 0.244842 0.115900
vt 0.247687 0.109223
vt 0.358720 0.339184
vt 0.381301 0.337941
vt 0.336295 0.342333
vt 0.314021 0.347340
vt 0.472882 0.350513
vt 0.449451 0.345330
vt 0.426653 0.341107
vt 0.403963 0.338593
vt 0.354869 0.298969
vt 0.380543 0.297547
vt 0.329477 0.302520
vt 0.304768 0.308335
vt 0.480360 0.311850
vt 0.456628 0.305334
vt 0.431705 0.300796
vt 0.406235 0.298179
vt 0.380096 0.414943
vt 0.395111 0.422167
vt 0.364371 0.420451
vt 0.357147 0.435467
vt 0.362655 0.451192
vt 0.377670 0.458416
vt 0.393395 0.452908
vt 0.400618 0.437892
vt 0.382291 0.361394
vt 0.434527 0.385854
vt 0.328057 0.381036
vt 0.303598 0.433271
vt 0.323238 0.487504
vt 0.375475 0.511965
vt 0.429708 0.492323
vt 0.454167 0.440088
vt 0.783328 0.014896
vt 0.718260 0.009975
vt 0.848053 0.025693
vt 0.912289 0.043150
vt 0.455611 0.053872
vt 0.521058 0.031280
vt 0.587035 0.017499
vt 0.652832 0.010725
vt 0.760426 0.181233
vt 0.712635 0.178419
vt 0.807821 0.187381
vt 0.854482 0.196823
vt 0.900065 0.209483
vt 0.570268 0.190210
vt 0.617209 0.182894
vt 0.664782 0.178965
vt 0.470885 0.440808
vt 0.446858 0.374542
vt 0.441020 0.504654
vt 0.374755 0.528683
vt 0.310907 0.498816
vt 0.286880 0.432551
vt 0.316745 0.368705
vt 0.383011 0.344676
vt 0.369171 0.132332
vt 0.380457 0.135153
vt 0.359184 0.138319
vt 0.356345 0.149600
vt 0.362322 0.159509
vt 0.373607 0.162345
vt 0.383592 0.156387
vt 0.386430 0.145121
vt 0.524323 0.200867
vt 0.975507 0.068754
vt 0.720246 0.988731
vt 0.713206 0.987301
vt 0.726235 0.984764
vt 0.727665 0.977725
vt 0.666901 0.970468
vt 0.710670 0.974271
vt 0.709240 0.981311
vt 0.408200 0.273767
vt 0.380414 0.273055
vt 0.435865 0.276660
vt 0.296933 0.284768
vt 0.269234 0.295751
vt 0.281504 0.316564
vt 0.324770 0.278312
vt 0.352585 0.274538
vt 0.291593 0.353831
vt 0.463400 0.281933
vt 0.490822 0.290838
vt 0.363051 0.090815
vt 0.208570 0.097772
vt 0.325481 0.113355
vt 0.379731 0.203800
vt 0.054450 0.143047
vt 0.059008 0.148660
vt 0.068137 0.154050
vt 0.417291 0.181412
vt 0.427966 0.138999
vt 0.276106 0.221345
vt 0.138698 0.251872
vt 0.193920 0.245939
vt 0.183323 0.243141
vt 0.203797 0.250980
vt 0.149051 0.246761
vt 0.159772 0.243602
vt 0.171554 0.242475
vn 0.350521 -0.185260 -0.918049
vn 0.350521 -0.185260 -0.918049
vn 0.353527 -0.254230 -0.900214
vn 0.353533 -0.254420 -0.900158
vn -0.350521 -0.185260 -0.918049
vn -0.350521 -0.185260 -0.918049
vn -0.353533 -0.254420 -0.900158
vn -0.353527 -0.254230 -0.900214
vn -0.906350 -0.193875 -0.375421
vn -0.906351 -0.193875 -0.375421
vn -0.895597 -0.245538 -0.370968
vn -0.895552 -0.245728 -0.370949
vn -0.906351 -0.193875 0.375421
vn -0.906351 -0.193875 0.375421
vn -0.895552 -0.245728 0.370949
vn -0.895597 -0.245538 0.370968
vn -0.350521 -0.185260 0.918049
vn -0.350521 -0.185260 0.918049
vn -0.353527 -0.254230 0.900214
vn -0.353533 -0.254420 0.900158
vn 0.350521 -0.185260 0.918049
vn 0.350521 -0.185260 0.918049
vn 0.353533 -0.254420 0.900158
vn 0.353527 -0.254230 0.900214
vn 0.906350 -0.193875 0.375422
vn 0.906351 -0.193875 0.375422
vn 0.895597 -0.245538 0.370968
vn 0.895552 -0.245728 0.370949
vn 0.906350 -0.193875 -0.375422
vn 0.906351 -0.193875 -0.375422
vn 0.895552 -0.245728 -0.370950
vn 0.895597 -0.245538 -0.370968
vn 0.000000 -1.000000 0.000000
vn 0.000000 -1.000000 -0.000000
vn 0.000000 -1.000000 -0.000000
vn 0.000000 -1.000000 0.000000
vn 0.000000 -1.000000 0.000000
vn 0.000000 -1.000000 0.000000
vn 0.000000 -1.000000 0.000000
vn 0.000000 -1.000000 0.000000
vn 0.000000 -1.000000 -0.000000
vn 0.000000 1.000000 0.000013
vn 0.000000 1.000000 0.000000
vn 0.000000 1.000000 0.000000
vn 0.000000 1.000000 0.000000
vn 0.000000 1.000000 -0.000013
vn 0.000000 1.000000 -0.000013
vn 0.000000 1.000000 0.000000
vn 0.000000 1.000000 0.000000
vn 0.000000 1.000000 0.000013
vn 0.886356 -0.282101 -0.367141
vn 0.886356 -0.282101 -0.367141
vn 0.886356 -0.282101 0.367141
vn 0.886356 -0.282101 0.367141
vn 0.354598 -0.304709 0.883976
vn 0.354598 -0.304709 0.883976
vn -0.354598 -0.304709 0.883975
vn -0.354598 -0.304709 0.883975
vn -0.886356 -0.282101 0.367141
vn -0.886356 -0.282101 0.367141
vn -0.886356 -0.282101 -0.367141
vn -0.886356 -0.282101 -0.367141
vn -0.354598 -0.304709 -0.883976
vn -0.354598 -0.304709 -0.883976
vn 0.354598 -0.304709 -0.883975
vn 0.354598 -0.304709 -0.883975
vn 0.382683 0.000000 -0.923880
vn 0.382683 0.000000 -0.923880
vn 0.382683 0.000000 -0.923880
vn 0.382683 0.000000 -0.923880
vn -0.382683 0.000000 -0.923880
vn -0.382683 0.000000 -0.923880
vn -0.382683 0.000000 -0.923880
vn -0.382683 0.000000 -0.923880
vn -0.923880 0.000000 -0.382683
vn -0.923880 0.000000 -0.382683
vn -0.923880 0.000000 -0.382683
vn -0.923880 0.000000 -0.382683
vn -0.923880 0.000000 0.382683
vn -0.923880 0.000000 0.382683
vn -0.923880 0.000000 0.382683
vn -0.923880 0.000000 0.382683
vn -0.382683 0.000000 0.923880
vn -0.382683 0.000000 0.923880
vn -0.382683 0.000000 0.923880
vn -0.382683 0.000000 0.923880
vn 0.382683 0.000000 0.923880
vn 0.382683 0.000000 0.923880
vn 0.382683 0.000000 0.923880
vn 0.382683 0.000000 0.923880
vn 0.923879 0.000000 0.382683
vn 0.923879 0.000000 0.382683
vn 0.923879 0.000000 0.382683
vn 0.923879 0.000000 0.382683
vn 0.923879 0.000000 -0.382684
vn 0.923879 0.000000 -0.382684
vn 0.923879 0.000000 -0.382684
vn 0.923879 0.000000 -0.382684
vn 0.197808 -0.856048 -0.477550
vn 0.197808 -0.856048 -0.477550
vn 0.197808 -0.856048 -0.477550
vn 0.197808 -0.856048 -0.477550
vn 0.000000 1.000000 0.000000
vn 0.000000 1.000000 0.000000
vn 0.000000 1.000000 0.000000
vn 0.000000 1.000000 0.000000
vn -0.197808 -0.856048 -0.477549
vn -0.197808 -0.856048 -0.477549
vn -0.197808 -0.856048 -0.477549
vn -0.197808 -0.856048 -0.477549
vn 0.000000 1.000000 0.000000
vn 0.000000 1.000000 0.000000
vn 0.000000 1.000000 0.000000
vn 0.000000 1.000000 0.000000
vn -0.477550 -0.856048 -0.197808
vn -0.477550 -0.856048 -0.197808
vn -0.477550 -0.856048 -0.197808
vn -0.477550 -0.856048 -0.197807
vn 0.000000 1.000000 0.000000
vn 0.000000 1.000000 0.000000
vn 0.000000 1.000000 0.000000
vn 0.000000 1.000000 0.000000
vn -0.477550 -0.856048 0.197808
vn -0.477550 -0.856048 0.197808
vn -0.477550 -0.856048 0.197807
vn -0.477550 -0.856048 0.197808
vn 0.000000 1.000000 0.000000
vn 0.000000 1.000000 0.000000
vn 0.000000 1.000000 0.000000
vn 0.000000 1.000000 0.000000
vn -0.197808 -0.856048 0.477549
vn -0.197808 -0.856048 0.477549
vn -0.197808 -0.856048 0.477549
vn -0.197808 -0.856048 0.477549
vn 0.000000 1.000000 -0.000000
vn 0.000000 1.000000 -0.000000
vn 0.000000 1.000000 -0.000000
vn 0.000000 1.000000 -0.000000
vn 0.197808 -0.856048 0.477550
vn 0.197808 -0.856048 0.477550
vn 0.197807 -0.856048 0.477550
vn 0.197807 -0.856048 0.477550
vn 0.000000 1.000000 0.000000
vn 0.000000 1.000000 0.000000
vn 0.000000 1.000000 0.000000
vn 0.000000 1.000000 0.000000
vn 0.477550 -0.856048 0.197808
vn 0.477550 -0.856048 0.197808
vn 0.477550 -0.856048 0.197807
vn 0.477550 -0.856048 0.197807
vn 0.000000 1.000000 0.000000
vn 0.000000 1.000000 0.000000
vn 0.000000 1.000000 0.000000
vn 0.000000 1.000000 0.000000
vn 0.477550 -0.856048 -0.197808
vn 0.477550 -0.856048 -0.197808
vn 0.477550 -0.856048 -0.197808
vn 0.477550 -0.856048 -0.197808
vn 0.000000 1.000000 0.000000
vn 0.000000 1.000000 0.000000
vn 0.000000 1.000000 0.000000
vn 0.000000 1.000000 0.000000
vn 0.382686 0.000000 -0.923879
vn 0.382686 0.000000 -0.923879
vn 0.382686 0.000000 -0.923879
vn 0.382686 0.000000 -0.923879
vn -0.382686 0.000000 -0.923879
vn -0.382686 0.000000 -0.923879
vn -0.382686 0.000000 -0.923879
vn -0.382686 0.000000 -0.923879
vn -0.923879 0.000000 -0.382686
vn -0.923879 0.000000 -0.382686
vn -0.923879 0.000000 -0.382686
vn -0.923879 0.000000 -0.382686
vn -0.923879 0.000000 0.382686
vn -0.923879 0.000000 0.382686
vn -0.923879 0.000000 0.382686
vn -0.923879 0.000000 0.382686
vn -0.382686 0.000000 0.923879
vn -0.382686 0.000000 0.923879
vn -0.382686 0.000000 0.923879
vn -0.382686 0.000000 0.923879
vn 0.382686 0.000000 0.923879
vn 0.382686 0.000000 0.923879
vn 0.382686 0.000000 0.923879
vn 0.382686 0.000000 0.923879
vn 0.923879 0.000000 0.382686
vn 0.923879 0.000000 0.382686
vn 0.923879 0.000000 0.382686
vn 0.923879 0.000000 0.382686
vn 0.923879 0.000000 -0.382686
vn 0.923879 0.000000 -0.382686
vn 0.923879 0.000000 -0.382686
vn 0.923879 0.000000 -0.382686
vn 0.365278 -0.298174 -0.881853
vn 0.365278 -0.298175 -0.881853
vn 0.365278 -0.298174 -0.881853
vn 0.365278 -0.298174 -0.881853
vn -0.365278 -0.298174 -0.881853
vn -0.365278 -0.298174 -0.881853
vn -0.365278 -0.298174 -0.881853
vn -0.365278 -0.298174 -0.881853
vn -0.881853 -0.298175 -0.365278
vn -0.881853 -0.298175 -0.365278
vn -0.881853 -0.298175 -0.365278
vn -0.881853 -0.298175 -0.365278
vn -0.881853 -0.298175 0.365278
vn -0.881853 -0.298175 0.365278
vn -0.881853 -0.298175 0.365278
vn -0.881853 -0.298175 0.365278
vn -0.365278 -0.298174 0.881853
vn -0.365278 -0.298175 0.881853
vn -0.365278 -0.298174 0.881853
vn -0.365278 -0.298174 0.881853
vn 0.365278 -0.298174 0.881853
vn 0.365278 -0.298174 0.881853
vn 0.365278 -0.298174 0.881853
vn 0.365278 -0.298174 0.881853
vn 0.881853 -0.298175 0.365278
vn 0.881853 -0.298175 0.365278
vn 0.881853 -0.298175 0.365278
vn 0.881853 -0.298175 0.365278
vn 0.881853 -0.298175 -0.365278
vn 0.881853 -0.298175 -0.365278
vn 0.881853 -0.298175 -0.365278
vn 0.881853 -0.298175 -0.365278
vn 0.131808 -0.938812 -0.318210
vn 0.131808 -0.938812 -0.318210
vn 0.131808 -0.938812 -0.318210
vn 0.131808 -0.938812 -0.318210
vn -0.131808 -0.938812 -0.318211
vn -0.131808 -0.938812 -0.318211
vn -0.131808 -0.938812 -0.318211
vn -0.131808 -0.938812 -0.318211
vn -0.318211 -0.938812 -0.131808
vn -0.318211 -0.938812 -0.131808
vn -0.318211 -0.938812 -0.131808
vn -0.318211 -0.938812 -0.131808
vn -0.318211 -0.938812 0.131808
vn -0.318211 -0.938812 0.131808
vn -0.318211 -0.938812 0.131808
vn -0.318211 -0.938812 0.131808
vn -0.131808 -0.938812 0.318210
vn -0.131808 -0.938812 0.318210
vn -0.131808 -0.938812 0.318210
vn -0.131808 -0.938812 0.318210
vn 0.131808 -0.938812 0.318211
vn 0.131808 -0.938812 0.318211
vn 0.131808 -0.938812 0.318211
vn 0.131808 -0.938812 0.318211
vn 0.318211 -0.938812 0.131808
vn 0.318211 -0.938812 0.131808
vn 0.318211 -0.938812 0.131808
vn 0.318211 -0.938812 0.131808
vn 0.318211 -0.938812 -0.131808
vn 0.318211 -0.938812 -0.131808
vn 0.318211 -0.938812 -0.131808
vn 0.318211 -0.938812 -0.131808
vn -0.118468 -0.950877 0.286005
vn -0.118468 -0.950877 0.286005
vn -0.118468 -0.950877 0.286005
vn -0.118468 -0.950877 0.286005
vn 0.118468 -0.950877 0.286006
vn 0.118468 -0.950877 0.286006
vn 0.118468 -0.950877 0.286006
vn 0.118468 -0.950877 0.286006
vn 0.286006 -0.950876 0.118468
vn 0.286006 -0.950877 0.118468
vn 0.286006 -0.950877 0.118468
vn 0.286006 -0.950877 0.118468
vn 0.286006 -0.950877 -0.118468
vn 0.286006 -0.950876 -0.118468
vn 0.286006 -0.950877 -0.118468
vn 0.286006 -0.950877 -0.118468
vn 0.118468 -0.950877 -0.286005
vn 0.118468 -0.950877 -0.286005
vn 0.118468 -0.950877 -0.286005
vn 0.118468 -0.950877 -0.286005
vn -0.118468 -0.950877 -0.286006
vn -0.118468 -0.950877 -0.286006
vn -0.118468 -0.950877 -0.286006
vn -0.118468 -0.950877 -0.286006
vn -0.286006 -0.950876 -0.118468
vn -0.286006 -0.950877 -0.118468
vn -0.286006 -0.950877 -0.118468
vn -0.286006 -0.950877 -0.118468
vn -0.286006 -0.950877 0.118468
vn -0.286006 -0.950876 0.118468
vn -0.286006 -0.950877 0.118468
vn -0.286006 -0.950877 0.118468
vn 0.377321 0.166849 -0.910928
vn 0.377321 0.166849 -0.910928
vn 0.380943 0.095302 -0.919674
vn 0.380943 0.095302 -0.919674
vn -0.377321 0.166849 -0.910928
vn -0.377321 0.166849 -0.910928
vn -0.380943 0.095302 -0.919674
vn -0.380943 0.095302 -0.919674
vn -0.910928 0.166849 -0.377321
vn -0.910928 0.166849 -0.377321
vn -0.919674 0.095302 -0.380943
vn -0.919674 0.095302 -0.380943
vn -0.910928 0.166849 0.377321
vn -0.910928 0.166849 0.377321
vn -0.919674 0.095302 0.380943
vn -0.919674 0.095302 0.380943
vn -0.377321 0.166849 0.910928
vn -0.377321 0.166849 0.910928
vn -0.380943 0.095302 0.919674
vn -0.380943 0.095302 0.919674
vn 0.377321 0.166849 0.910928
vn 0.377321 0.166849 0.910928
vn 0.380943 0.095302 0.919674
vn 0.380943 0.095302 0.919674
vn 0.910928 0.166849 0.377321
vn 0.910928 0.166849 0.377321
vn 0.919674 0.095302 0.380943
vn 0.919674 0.095302 0.380943
vn 0.910928 0.166849 -0.377321
vn 0.910928 0.166849 -0.377321
vn 0.919674 0.095302 -0.380943
vn 0.919674 0.095302 -0.380943
vn 0.922161 0.060945 -0.381974
vn 0.922161 0.060945 -0.381974
vn 0.922161 0.060945 0.381974
vn 0.922161 0.060945 0.381974
vn 0.381974 0.060945 0.922161
vn 0.381974 0.060945 0.922161
vn -0.381974 0.060945 0.922161
vn -0.381974 0.060945 0.922161
vn -0.922161 0.060945 0.381974
vn -0.922161 0.060945 0.381974
vn -0.922161 0.060945 -0.381974
vn -0.922161 0.060945 -0.381974
vn -0.381974 0.060945 -0.922161
vn -0.381974 0.060945 -0.922161
vn 0.381974 0.060945 -0.922161
vn 0.381974 0.060945 -0.922161
s 1
g Lance
usemtl initialShadingGroup
f 1/147/1 2/151/2 25/3/3 18/4/4
s 2
f 2/151/5 3/150/6 24/6/7 25/3/8
s 3
f 3/150/9 4/149/10 23/8/11 24/6/12
s 4
f 4/149/13 5/145/14 22/10/15 23/8/16
s 5
f 5/9/17 6/11/18 21/12/19 22/144/20
s 6
f 6/11/21 7/148/22 20/14/23 21/12/24
s 7
f 7/148/25 8/146/26 19/16/27 20/14/28
s 8
f 8/146/29 1/147/30 18/4/31 19/16/32
s 9
f 2/2/33 1/1/34 17/17/35
f 3/5/36 2/2/33 17/17/35
f 4/7/37 3/5/36 17/17/35
f 5/9/38 4/7/37 17/17/35
f 6/11/39 5/9/38 17/17/35
f 7/13/40 6/11/39 17/17/35
f 8/15/41 7/13/40 17/17/35
f 1/1/34 8/15/41 17/17/35
s 10
f 82/118/42 83/123/43 84/20/44
f 83/123/43 85/122/45 84/20/44
f 85/122/45 86/22/46 84/20/44
f 86/22/46 87/23/47 84/20/44
f 87/23/47 88/120/48 84/20/44
f 88/120/48 89/119/49 84/20/44
f 89/119/49 90/117/50 84/20/44
f 90/117/50 82/118/42 84/20/44
s 8
f 19/16/32 18/4/31 9/27/51 16/28/52
s 7
f 20/14/28 19/16/27 16/28/53 15/29/54
s 6
f 21/12/24 20/14/23 15/29/55 14/30/56
s 5
f 22/144/20 21/12/19 14/30/57 13/31/58
s 4
f 23/8/16 22/10/15 13/141/59 12/32/60
s 3
f 24/6/12 23/8/11 12/32/61 11/33/62
s 2
f 25/3/8 24/6/7 11/33/63 10/34/64
s 1
f 18/4/4 25/3/3 10/34/65 9/27/66
s off
f 34/35/67 35/36/68 36/37/69 37/136/70
f 35/36/71 38/39/72 39/40/73 36/37/74
f 38/39/75 40/41/76 41/42/77 39/40/78
f 40/41/79 42/140/80 43/139/81 41/42/82
f 42/43/83 44/45/84 45/46/85 43/44/86
f 44/45/87 46/47/88 47/48/89 45/46/90
f 46/47/91 48/49/92 49/50/93 47/48/94
f 48/49/95 34/35/96 37/136/97 49/50/98
f 9/27/99 10/34/100 35/36/101 34/35/102
f 27/114/103 26/108/104 37/38/105 36/143/106
f 10/34/107 11/33/108 38/39/109 35/36/110
f 28/113/111 27/114/112 36/143/113 39/142/114
f 11/33/115 12/32/116 40/41/117 38/39/118
f 29/112/119 28/113/120 39/142/121 41/138/122
f 12/32/123 13/141/124 42/140/125 40/41/126
f 30/111/127 29/112/128 41/138/129 43/44/130
f 13/31/131 14/30/132 44/45/133 42/43/134
f 31/110/135 30/111/136 43/44/137 45/46/138
f 14/30/139 15/29/140 46/47/141 44/45/142
f 32/109/143 31/110/144 45/46/145 47/137/146
f 15/29/147 16/28/148 48/49/149 46/47/150
f 33/107/151 32/109/152 47/137/153 49/135/154
f 16/28/155 9/27/156 34/35/157 48/49/158
f 26/108/159 33/107/160 49/135/161 37/38/162
f 26/52/163 27/51/164 51/59/165 50/60/166
f 27/51/167 28/53/168 52/61/169 51/59/170
f 28/53/171 29/54/172 53/62/173 52/61/174
f 29/54/175 30/132/176 54/129/177 53/62/178
f 30/55/179 31/56/180 55/64/181 54/63/182
f 31/56/183 32/57/184 56/65/185 55/64/186
f 32/57/187 33/58/188 57/66/189 56/65/190
f 33/58/191 26/52/192 50/60/193 57/66/194
f 50/60/195 51/59/196 59/131/197 58/125/198
f 51/59/199 52/61/200 60/130/201 59/131/202
f 52/61/203 53/62/204 61/127/205 60/130/206
f 53/62/207 54/129/208 62/128/209 61/127/210
f 54/63/211 55/64/212 63/133/213 62/134/214
f 55/64/215 56/65/216 64/126/217 63/133/218
f 56/65/219 57/66/220 65/124/221 64/126/222
f 57/66/223 50/60/224 58/125/225 65/124/226
f 58/68/227 59/67/228 67/75/229 66/76/230
f 59/67/231 60/69/232 68/77/233 67/75/234
f 60/69/235 61/70/236 69/78/237 68/77/238
f 61/70/239 62/71/240 70/79/241 69/78/242
f 62/71/243 63/72/244 71/80/245 70/79/246
f 63/72/247 64/73/248 72/81/249 71/80/250
f 64/73/251 65/74/252 73/82/253 72/81/254
f 65/74/255 58/68/256 66/76/257 73/82/258
f 66/76/259 67/75/260 75/106/261 74/100/262
f 67/75/263 68/77/264 76/105/265 75/106/266
f 68/77/267 69/78/268 77/104/269 76/105/270
f 69/78/271 70/79/272 78/103/273 77/104/274
f 70/79/275 71/80/276 79/102/277 78/103/278
f 71/80/279 72/81/280 80/101/281 79/102/282
f 72/81/283 73/82/284 81/99/285 80/101/286
f 73/82/287 66/76/288 74/100/289 81/99/290
s 11
f 74/84/291 75/83/292 98/91/293 91/92/294
s 12
f 75/83/295 76/85/296 97/93/297 98/91/298
s 13
f 76/85/299 77/86/300 96/94/301 97/93/302
s 14
f 77/86/303 78/116/304 95/95/305 96/94/306
s 15
f 78/87/307 79/88/308 94/96/309 95/115/310
s 16
f 79/88/311 80/89/312 93/97/313 94/96/314
s 17
f 80/89/315 81/90/316 92/98/317 93/97/318
s 18
f 81/90/319 74/84/320 91/92/321 92/98/322
f 92/98/322 91/92/321 82/18/323 90/26/324
s 17
f 93/97/318 92/98/317 90/26/325 89/25/326
s 16
f 94/96/314 93/97/313 89/25/327 88/24/328
s 15
f 95/115/310 94/96/309 88/24/329 87/121/330
s 14
f 96/94/306 95/95/305 87/23/331 86/22/332
s 13
f 97/93/302 96/94/301 86/22/333 85/21/334
s 12
f 98/91/298 97/93/297 85/21/335 83/19/336
s 11
f 91/92/294 98/91/293 83/19/337 82/18/338
